<?xml version="1.0" standalone="no"?>
<!DOCTYPE svg PUBLIC "-//W3C//DTD SVG 20010904//EN"
 "http://www.w3.org/TR/2001/REC-SVG-20010904/DTD/svg10.dtd">
<svg version="1.0" xmlns="http://www.w3.org/2000/svg"
 width="260.000000pt" height="260.000000pt" viewBox="0 0 260.000000 260.000000"
 preserveAspectRatio="xMidYMid meet">
<metadata>
Created by potrace 1.14, written by Peter Selinger 2001-2017
</metadata>
<g transform="translate(0.000000,260.000000) scale(0.100000,-0.100000)"
fill="#000000" stroke="none">
<path d="M1893 2345 c0 -8 4 -12 9 -9 5 3 6 10 3 15 -9 13 -12 11 -12 -6z"/>
<path d="M1754 2320 c0 -13 4 -16 10 -10 7 7 7 13 0 20 -6 6 -10 3 -10 -10z"/>
<path d="M1215 2321 c-3 -5 -2 -12 3 -15 5 -3 9 1 9 9 0 17 -3 19 -12 6z"/>
<path d="M1253 2315 c0 -8 4 -12 9 -9 5 3 6 10 3 15 -9 13 -12 11 -12 -6z"/>
<path d="M1785 2320 c-3 -6 1 -7 9 -4 18 7 21 14 7 14 -6 0 -13 -4 -16 -10z"/>
<path d="M735 2303 c3 -3 -1 -13 -8 -21 -9 -13 -9 -14 1 -8 7 4 12 2 12 -5 0
-7 -11 -10 -29 -7 -23 3 -27 1 -24 -13 3 -10 -2 -32 -10 -49 -9 -17 -11 -28
-6 -25 16 11 10 -7 -8 -21 -14 -11 -14 -13 -2 -9 12 5 15 -2 15 -30 -1 -21 -5
-34 -12 -31 -6 2 -11 -2 -11 -10 0 -7 4 -11 9 -8 13 8 9 -20 -4 -35 -11 -11
-10 -12 0 -7 13 8 13 11 -4 -175 l-6 -67 34 -3 c32 -4 33 -3 32 28 -1 18 2 33
7 33 4 0 6 6 3 14 -3 8 -1 17 5 20 6 4 8 12 5 20 -8 21 14 68 28 60 10 -5 10
-4 2 5 -12 13 3 61 19 61 5 0 5 5 1 12 -4 7 -3 8 4 4 6 -4 10 -12 8 -19 -1 -7
-1 -9 1 -4 3 4 9 5 13 2 5 -3 12 0 16 6 4 7 3 9 -3 6 -6 -4 -13 0 -17 8 -8 22
44 68 61 53 7 -6 13 -7 13 -3 0 4 6 3 13 -2 8 -6 20 -1 37 15 l25 25 -25 -14
c-29 -16 -60 -20 -60 -8 0 5 3 9 8 10 4 0 16 3 27 5 96 23 119 23 145 1 24
-21 24 -21 7 -1 l-17 21 205 0 c146 1 205 -3 205 -11 0 -7 3 -7 8 -1 10 14 52
18 52 5 0 -7 5 -8 13 -3 15 10 88 12 81 2 -2 -4 11 -17 29 -29 17 -12 25 -20
16 -17 -9 3 -21 -4 -28 -15 -11 -18 -11 -20 4 -14 15 5 16 4 5 -9 -7 -8 -20
-15 -29 -15 -14 0 -14 2 -1 10 13 8 13 10 1 10 -11 0 -9 4 5 15 16 13 16 14 2
9 -11 -4 -18 -1 -18 6 0 6 4 9 8 6 4 -2 14 0 22 6 12 8 12 9 -3 4 -12 -4 -16
-2 -11 6 5 7 3 8 -6 3 -8 -5 -11 -4 -6 3 3 6 1 14 -5 18 -7 4 -9 3 -5 -4 3 -6
2 -13 -4 -17 -5 -3 -10 -1 -10 5 0 6 -5 8 -10 5 -6 -3 -10 -1 -10 6 0 7 -3 10
-6 7 -3 -4 -1 -16 6 -27 6 -12 7 -21 1 -21 -5 0 -11 7 -15 15 -6 17 -26 20
-26 4 0 -5 5 -7 10 -4 6 3 10 2 10 -4 0 -5 13 -18 29 -27 17 -10 28 -21 25
-25 -2 -4 4 -13 13 -19 16 -10 16 -11 -4 -7 -13 3 -26 1 -29 -5 -4 -7 -9 -6
-14 2 -5 8 -9 7 -13 -5 -4 -9 -3 -13 3 -10 6 3 10 1 10 -4 0 -6 5 -11 11 -11
5 0 7 5 3 12 -5 7 -3 8 6 3 9 -6 11 -4 5 6 -7 12 -6 12 6 0 11 -10 11 -15 1
-18 -6 -3 -10 -9 -7 -14 4 -5 -1 -6 -10 -3 -11 5 -16 2 -15 -7 4 -29 -1 -40
-22 -48 -17 -6 -25 -4 -30 8 -6 13 -7 12 -5 -4 2 -11 9 -19 15 -17 7 1 12 -1
12 -5 -1 -12 -26 -43 -35 -43 -4 0 -2 6 4 14 18 21 -7 33 -25 12 -8 -9 -9 -11
-2 -6 7 6 17 10 23 10 5 -1 -1 -9 -14 -20 -12 -11 -27 -17 -32 -14 -5 3 -9 0
-9 -5 0 -14 6 -14 30 -1 13 7 21 7 25 0 3 -5 -2 -10 -11 -10 -10 0 -14 -3 -11
-6 3 -4 2 -15 -4 -26 -9 -16 -13 -17 -26 -6 -14 11 -15 11 -5 -8 9 -17 7 -24
-8 -36 -10 -9 -30 -37 -45 -62 -15 -25 -31 -46 -36 -46 -5 0 -8 -3 -7 -7 1 -5
-3 -18 -10 -30 -8 -15 -18 -20 -30 -16 -15 6 -15 5 -3 -10 11 -14 11 -18 -2
-23 -9 -3 -22 -2 -29 2 -19 12 -37 13 -43 4 -3 -5 4 -7 15 -5 12 2 23 -2 27
-10 3 -8 10 -12 17 -8 6 3 2 -3 -9 -14 -15 -16 -23 -18 -34 -9 -12 9 -12 8 -2
-11 11 -22 8 -28 -13 -24 -5 1 -6 -5 -3 -13 3 -8 -3 -22 -14 -32 -10 -9 -19
-22 -19 -28 -1 -20 -61 -82 -67 -68 -2 6 -9 12 -15 12 -6 0 -3 -9 7 -20 10
-11 13 -20 7 -20 -7 0 -12 -6 -12 -13 0 -7 -11 -24 -25 -39 -14 -15 -25 -32
-25 -38 0 -5 -5 -10 -11 -10 -5 0 -7 -6 -3 -12 6 -10 4 -10 -7 -1 -16 15 -39
17 -39 3 0 -5 6 -7 13 -4 23 8 13 -31 -16 -65 -15 -18 -31 -30 -36 -27 -5 4
-12 -2 -16 -13 -3 -11 -14 -22 -23 -24 -15 -4 -15 -5 1 -6 10 0 20 6 23 14 4
8 10 15 16 15 5 0 -3 -16 -18 -35 -14 -19 -31 -35 -36 -35 -6 0 -5 7 2 15 7 9
8 15 2 15 -5 0 -13 -7 -16 -16 -3 -8 -11 -12 -17 -8 -8 4 -9 3 -5 -4 14 -23
14 -51 1 -56 -8 -3 -19 2 -23 11 -8 13 -9 10 -9 -12 0 -15 2 -23 6 -19 3 5 13
10 21 12 10 1 9 -3 -5 -14 -11 -8 -19 -20 -17 -26 2 -6 -4 -8 -12 -5 -10 4
-13 1 -9 -8 3 -8 -2 -18 -11 -21 -9 -3 -16 -10 -16 -16 0 -5 6 -6 13 -2 6 4 2
-3 -11 -15 -14 -14 -30 -20 -40 -17 -15 5 -15 5 -1 -6 9 -7 14 -19 11 -26 -3
-10 -8 -8 -18 5 -12 15 -13 15 -8 1 4 -13 1 -16 -18 -12 -22 4 -22 4 2 -6 14
-6 20 -14 14 -18 -5 -4 -22 -29 -38 -55 -30 -52 -53 -68 -67 -46 -6 10 -9 11
-9 1 0 -7 7 -15 15 -18 12 -5 11 -11 -7 -35 -18 -24 -24 -26 -36 -16 -13 10
-14 9 -5 -7 9 -17 4 -30 -28 -78 -22 -32 -44 -58 -50 -58 -6 0 -8 -4 -4 -10 3
-5 -3 -18 -13 -28 -11 -11 -17 -29 -15 -42 4 -30 3 -29 44 -31 18 -2 40 -7 48
-13 12 -9 13 -8 6 4 -8 13 -7 13 10 0 11 -9 16 -10 11 -2 -4 7 -1 12 9 12 10
0 13 -5 9 -12 -5 -8 -3 -8 7 -2 22 14 80 12 75 -3 -3 -7 1 -10 9 -6 8 3 12 9
9 14 -3 5 0 9 5 9 6 0 11 -5 11 -11 0 -6 5 -7 13 -2 21 13 47 14 47 1 0 -9 3
-9 12 0 15 15 48 16 48 1 0 -8 6 -7 17 2 15 12 16 12 10 -3 -3 -10 -2 -20 4
-23 5 -4 9 -3 8 2 -4 24 5 30 41 30 22 0 40 -5 40 -11 0 -6 4 -5 9 2 4 8 12
14 16 14 4 0 12 -6 16 -14 7 -10 9 -10 9 0 0 8 12 12 35 10 19 -1 35 -6 35
-10 0 -4 5 -8 11 -8 5 0 7 5 4 10 -4 7 6 10 29 8 20 -1 36 -7 36 -13 0 -5 4
-4 8 3 9 13 72 13 72 0 0 -4 5 -8 11 -8 5 0 7 5 4 10 -9 14 8 12 24 -3 8 -6
11 -7 8 -1 -4 7 11 11 43 10 28 0 50 -3 50 -8 0 -4 5 -8 11 -8 5 0 7 4 4 10
-4 6 10 9 34 8 23 -1 41 -6 41 -12 0 -6 5 -4 10 4 8 13 13 13 31 2 11 -8 19
-9 15 -4 -8 13 116 12 133 -2 11 -8 13 -8 7 1 -4 8 -1 13 9 13 10 0 13 -5 9
-12 -6 -9 -3 -9 9 0 15 12 16 11 12 -17 -2 -18 0 -29 6 -25 5 3 7 9 4 14 -3 4
-3 14 0 22 7 17 145 23 145 6 0 -7 4 -7 13 -1 15 12 87 13 87 1 0 -4 5 -8 11
-8 5 0 7 5 3 11 -5 8 3 10 24 7 29 -4 30 -3 38 46 7 53 10 64 14 69 1 1 4 16
6 32 8 70 12 85 25 102 12 14 12 16 0 8 -9 -5 -12 -4 -7 3 4 6 9 39 12 74 7
71 10 81 27 71 9 -5 9 -3 0 8 -11 13 -9 71 2 90 4 5 -8 9 -24 9 -21 0 -31 -5
-31 -15 0 -8 -5 -15 -11 -15 -5 0 -7 -5 -4 -11 4 -5 -1 -20 -12 -31 -10 -12
-12 -18 -5 -14 11 7 12 4 4 -10 -5 -11 -21 -44 -36 -74 -15 -30 -38 -68 -52
-85 -20 -25 -26 -28 -34 -15 -5 8 -10 10 -10 4 0 -5 4 -14 10 -20 6 -6 -7 -19
-36 -37 -25 -15 -43 -23 -39 -17 3 5 1 10 -4 10 -6 0 -11 -7 -11 -15 0 -13
-12 -17 -36 -14 -4 0 -10 -4 -13 -9 -8 -13 -71 -23 -71 -11 0 5 -5 9 -11 9 -5
0 -7 -5 -4 -10 3 -6 -3 -10 -14 -10 -10 0 -22 6 -24 13 -4 9 -6 9 -6 0 -1 -7
-8 -13 -17 -13 -9 0 -13 5 -9 13 4 6 1 5 -7 -4 -17 -20 -56 -10 -52 14 1 9 -2
17 -7 17 -6 0 -9 -6 -8 -12 3 -27 -1 -39 -13 -32 -7 4 -35 7 -62 5 -37 -1 -47
1 -36 8 9 7 10 11 3 11 -7 0 -17 -8 -22 -17 -6 -10 -11 -13 -11 -7 0 6 -13 9
-30 6 -17 -2 -37 1 -45 8 -13 11 -14 10 -10 -1 4 -11 -7 -13 -60 -11 -43 3
-63 7 -59 14 4 6 2 8 -4 4 -5 -3 -13 0 -16 6 -3 7 -3 2 0 -11 4 -15 2 -21 -4
-17 -6 4 -61 7 -121 8 -61 1 -111 6 -111 11 0 5 9 7 20 4 21 -5 37 8 21 17
-11 7 -61 -14 -61 -26 0 -4 -5 -8 -11 -8 -8 0 -9 4 0 13 6 8 8 17 4 21 -4 4
-13 -4 -21 -16 -11 -18 -12 -19 -7 -3 4 11 8 27 9 34 2 8 8 17 14 19 6 2 10 9
8 15 -1 7 -1 9 1 5 9 -16 20 -7 19 15 -1 20 10 39 55 100 15 19 19 20 35 7 18
-14 18 -13 0 8 -19 22 -19 22 1 22 12 0 25 11 31 25 17 37 14 45 -4 12 -9 -16
-18 -27 -21 -24 -7 8 26 54 43 61 8 3 14 14 14 23 0 10 9 25 19 33 11 7 18 17
15 21 -2 4 0 10 6 14 5 3 10 0 10 -7 0 -10 3 -9 10 2 5 9 5 17 0 20 -5 3 4 21
20 39 17 18 30 36 30 42 0 5 5 9 11 9 5 0 7 5 4 10 -3 6 1 13 9 16 9 3 13 11
9 17 -3 5 -1 7 4 4 6 -4 16 6 22 24 6 19 15 28 22 24 8 -6 7 -10 -2 -16 -8 -5
-9 -9 -3 -9 18 0 24 12 14 31 -8 14 -6 17 10 16 11 -1 18 -7 16 -13 -5 -13 19
-13 31 1 4 4 3 5 -3 2 -7 -4 -15 0 -18 9 -3 8 -10 12 -16 9 -28 -17 12 54 46
81 10 8 13 12 5 8 -10 -5 -12 -3 -6 6 6 10 11 9 22 -5 15 -22 18 -12 3 14 -7
14 -4 24 11 40 11 12 25 18 31 15 7 -4 8 -2 4 5 -4 6 -2 18 4 26 7 8 9 15 4
15 -5 0 -4 4 2 8 5 4 26 30 45 57 18 28 41 55 49 62 8 7 11 13 6 13 -11 0 14
30 25 30 5 0 9 -5 9 -11 0 -5 -4 -8 -9 -4 -5 3 -12 1 -15 -4 -7 -10 20 -9 30
2 4 3 1 14 -7 23 -12 15 -11 16 9 10 14 -5 22 -3 22 4 0 6 -4 8 -10 5 -21 -13
-9 24 13 42 13 10 24 20 24 23 4 21 28 58 34 54 5 -3 9 4 9 16 0 12 5 18 10
15 6 -3 10 0 10 8 0 8 7 20 15 27 9 7 13 15 10 18 -2 3 7 15 20 28 14 13 25
28 25 34 0 5 5 10 11 10 5 0 7 5 4 10 -3 6 -1 10 4 10 6 0 11 6 11 14 0 19 25
27 40 13 8 -8 8 -5 -1 10 -11 19 -11 25 0 35 12 11 13 10 8 -4 -4 -12 -2 -15
8 -11 10 3 12 10 6 21 -5 9 -5 20 1 26 5 6 15 20 22 31 12 17 16 18 32 5 15
-13 16 -13 9 -1 -6 11 -4 13 8 8 24 -9 21 0 -4 14 -17 9 -20 8 -14 -2 5 -8 4
-10 -4 -5 -16 10 -3 27 17 24 9 -2 17 4 18 12 0 9 -1 10 -3 2 -3 -7 -9 -10
-14 -6 -6 4 -6 11 2 20 16 20 27 18 34 -7 4 -11 9 -18 12 -15 3 3 -2 17 -11
30 -15 23 -15 26 2 35 9 6 14 11 9 11 -10 0 64 110 75 110 5 0 7 4 3 9 -3 6 3
14 12 20 10 6 14 11 9 11 -5 0 -1 9 9 20 10 11 16 23 13 26 -3 3 -56 6 -117 7
-84 2 -110 5 -106 14 2 7 0 13 -4 13 -5 0 -11 -7 -15 -15 -3 -8 -10 -15 -16
-15 -6 0 -8 6 -4 13 5 7 0 6 -11 -3 -17 -14 -18 -13 -12 3 3 9 2 17 -2 17 -5
0 -11 -6 -14 -14 -6 -15 -73 -16 -96 -2 -10 6 -12 5 -7 -2 5 -8 -1 -12 -17
-12 -31 0 -38 9 -27 30 7 14 6 18 -5 16 -8 -1 -18 -6 -22 -11 -4 -4 -3 -5 4
-1 7 4 11 0 10 -13 -1 -12 -9 -18 -24 -18 -12 0 -21 3 -18 6 2 4 -1 13 -6 21
-8 13 -9 13 -7 0 2 -9 -1 -15 -7 -15 -5 0 -9 4 -7 8 1 5 -2 6 -8 2 -6 -3 -8
-10 -6 -14 3 -4 -10 -8 -29 -9 -32 -1 -40 6 -36 31 1 5 -3 6 -8 2 -6 -3 -8
-11 -5 -18 6 -18 -97 -21 -108 -4 -5 8 -8 9 -8 1 0 -8 -63 -12 -215 -13 -152
-2 -215 1 -215 9 0 6 5 8 10 5 6 -3 10 -1 10 4 0 15 -20 14 -26 -2 -2 -7 -13
-13 -24 -14 -12 -1 -17 3 -14 12 3 7 1 16 -4 19 -5 3 -9 -2 -8 -12 1 -14 -9
-17 -61 -19 -35 -1 -64 2 -64 7 -1 6 -2 14 -3 19 0 5 -4 12 -8 15 -5 3 -6 3
-3 -1z m920 -183 c17 -18 17 -20 2 -14 -9 3 -17 10 -17 16 0 5 -5 6 -12 2 -7
-4 -8 -3 -4 4 9 16 10 15 31 -8z m-76 -36 c-7 -8 -6 -14 1 -17 6 -3 6 -5 -1
-3 -17 3 -20 33 -3 33 10 0 11 -4 3 -13z m-679 -1085 c0 -6 -4 -7 -10 -4 -5 3
-10 11 -10 16 0 6 5 7 10 4 6 -3 10 -11 10 -16z"/>
<path d="M793 2293 c0 -9 4 -10 14 -2 7 6 13 12 13 14 0 1 -6 2 -13 2 -8 0
-14 -6 -14 -14z"/>
<path d="M827 2290 c-9 -11 -13 -20 -7 -20 5 0 14 9 20 20 6 11 9 20 8 20 -2
0 -11 -9 -21 -20z"/>
<path d="M890 2306 c0 -2 7 -7 16 -10 8 -3 12 -2 9 4 -6 10 -25 14 -25 6z"/>
<path d="M1030 2300 c-12 -7 -10 -9 7 -7 12 0 19 5 17 9 -6 10 -6 10 -24 -2z"/>
<path d="M1445 2300 c-3 -6 1 -7 9 -4 18 7 21 14 7 14 -6 0 -13 -4 -16 -10z"/>
<path d="M1690 2299 c0 -5 5 -7 10 -4 6 3 10 8 10 11 0 2 -4 4 -10 4 -5 0 -10
-5 -10 -11z"/>
<path d="M1830 2300 c0 -5 5 -10 10 -10 6 0 10 5 10 10 0 6 -4 10 -10 10 -5 0
-10 -4 -10 -10z"/>
<path d="M988 2293 c7 -3 16 -2 19 1 4 3 -2 6 -13 5 -11 0 -14 -3 -6 -6z"/>
<path d="M1066 2285 c-11 -8 -16 -15 -10 -15 5 0 18 7 28 15 11 8 16 15 10 15
-5 0 -18 -7 -28 -15z"/>
<path d="M1119 2288 c15 -21 31 -23 31 -6 0 6 -3 8 -7 5 -3 -4 -13 -1 -22 6
-14 11 -14 10 -2 -5z"/>
<path d="M1317 2283 c3 -7 6 -13 8 -13 1 0 7 6 13 13 8 10 6 13 -7 13 -11 0
-17 -6 -14 -13z"/>
<path d="M1666 2285 c-3 -8 -1 -15 4 -15 6 0 10 7 10 15 0 8 -2 15 -4 15 -2 0
-6 -7 -10 -15z"/>
<path d="M1715 2291 c-3 -5 -2 -12 3 -15 5 -3 9 1 9 9 0 17 -3 19 -12 6z"/>
<path d="M1896 2287 c3 -10 9 -15 12 -12 3 3 0 11 -7 18 -10 9 -11 8 -5 -6z"/>
<path d="M1995 2290 c-4 -6 -11 -8 -16 -5 -5 4 -9 1 -9 -4 0 -16 16 -13 30 4
7 8 10 15 7 15 -3 0 -9 -5 -12 -10z"/>
<path d="M1166 2278 c3 -4 9 -8 15 -8 5 0 9 4 9 8 0 5 -7 9 -15 9 -8 0 -12 -4
-9 -9z"/>
<path d="M1206 2278 c3 -4 9 -8 15 -8 5 0 9 4 9 8 0 5 -7 9 -15 9 -8 0 -12 -4
-9 -9z"/>
<path d="M1250 2280 c0 -5 5 -10 10 -10 6 0 10 5 10 10 0 6 -4 10 -10 10 -5 0
-10 -4 -10 -10z"/>
<path d="M1745 2280 c3 -5 8 -10 11 -10 2 0 4 5 4 10 0 6 -5 10 -11 10 -5 0
-7 -4 -4 -10z"/>
<path d="M633 2235 c0 -8 4 -12 9 -9 4 3 8 9 8 15 0 5 -4 9 -8 9 -5 0 -9 -7
-9 -15z"/>
<path d="M2096 2202 c-3 -5 1 -9 9 -9 8 0 12 4 9 9 -3 4 -7 8 -9 8 -2 0 -6 -4
-9 -8z"/>
<path d="M606 2178 c3 -5 10 -6 15 -3 13 9 11 12 -6 12 -8 0 -12 -4 -9 -9z"/>
<path d="M641 2123 c7 -12 15 -20 18 -17 3 2 -3 12 -13 22 -17 16 -18 16 -5
-5z"/>
<path d="M2030 2130 c-9 -6 -10 -10 -3 -10 6 0 15 5 18 10 8 12 4 12 -15 0z"/>
<path d="M981 2114 c0 -11 3 -14 6 -6 3 7 2 16 -1 19 -3 4 -6 -2 -5 -13z"/>
<path d="M1235 2120 c-3 -5 -1 -10 4 -10 6 0 11 5 11 10 0 6 -2 10 -4 10 -3 0
-8 -4 -11 -10z"/>
<path d="M1308 2112 c4 -11 7 -12 10 -4 3 10 7 10 20 0 14 -10 15 -10 5 2 -18
20 -43 22 -35 2z"/>
<path d="M1373 2115 c0 -8 4 -12 9 -9 5 3 17 0 26 -7 13 -11 12 -8 -2 9 -22
26 -33 28 -33 7z"/>
<path d="M1485 2120 c-3 -5 -1 -10 4 -10 6 0 11 5 11 10 0 6 -2 10 -4 10 -3 0
-8 -4 -11 -10z"/>
<path d="M954 2096 c-3 -9 -9 -14 -13 -11 -4 2 -8 -3 -8 -11 0 -12 5 -11 21 5
11 11 17 23 13 27 -4 4 -9 -1 -13 -10z"/>
<path d="M1116 2102 c-2 -4 -1 -14 4 -22 7 -11 9 -9 7 8 -1 24 -3 26 -11 14z"/>
<path d="M2010 2100 c-9 -6 -10 -10 -3 -10 6 0 15 5 18 10 8 12 4 12 -15 0z"/>
<path d="M1010 2097 c0 -2 6 -10 14 -16 11 -9 16 -9 22 1 4 7 4 10 -1 6 -4 -4
-14 -3 -22 3 -7 6 -13 9 -13 6z"/>
<path d="M1155 2091 c-3 -5 -2 -12 3 -15 5 -3 9 1 9 9 0 17 -3 19 -12 6z"/>
<path d="M850 2076 c0 -9 -4 -14 -10 -11 -5 3 -10 1 -10 -4 0 -6 5 -11 10 -11
13 0 25 28 16 37 -3 4 -6 -1 -6 -11z"/>
<path d="M1473 2074 c0 -10 4 -11 13 -3 8 7 14 6 17 -1 3 -6 5 -6 3 1 -3 17
-33 20 -33 3z"/>
<path d="M2036 2078 c3 -5 10 -6 15 -3 13 9 11 12 -6 12 -8 0 -12 -4 -9 -9z"/>
<path d="M1985 2070 c-3 -6 1 -7 9 -4 18 7 21 14 7 14 -6 0 -13 -4 -16 -10z"/>
<path d="M2016 2062 c-3 -4 4 -9 15 -9 23 -2 25 3 4 10 -8 4 -16 3 -19 -1z"/>
<path d="M895 2050 c-3 -5 -12 -7 -20 -3 -8 3 -15 1 -15 -5 0 -13 27 -9 42 6
7 7 9 12 6 12 -4 0 -9 -4 -13 -10z"/>
<path d="M1025 2040 c-3 -6 1 -7 9 -4 18 7 21 14 7 14 -6 0 -13 -4 -16 -10z"/>
<path d="M1500 2040 c0 -5 5 -10 11 -10 5 0 7 5 4 10 -3 6 -8 10 -11 10 -2 0
-4 -4 -4 -10z"/>
<path d="M1536 2042 c-2 -4 4 -9 15 -9 11 -1 17 2 14 8 -7 11 -22 12 -29 1z"/>
<path d="M1980 2040 c-9 -6 -10 -10 -3 -10 6 0 15 5 18 10 8 12 4 12 -15 0z"/>
<path d="M2036 2018 c3 -5 10 -6 15 -3 13 9 11 12 -6 12 -8 0 -12 -4 -9 -9z"/>
<path d="M1460 2000 c-9 -6 -10 -10 -3 -10 6 0 15 5 18 10 8 12 4 12 -15 0z"/>
<path d="M775 1981 c-6 -11 13 -26 22 -17 4 3 1 6 -6 6 -7 0 -9 5 -6 10 3 6 4
10 1 10 -3 0 -7 -4 -11 -9z"/>
<path d="M835 1980 c-3 -5 -1 -10 4 -10 6 0 11 5 11 10 0 6 -2 10 -4 10 -3 0
-8 -4 -11 -10z"/>
<path d="M1518 1973 c7 -3 16 -2 19 1 4 3 -2 6 -13 5 -11 0 -14 -3 -6 -6z"/>
<path d="M590 1943 c0 -6 8 -17 18 -24 16 -13 16 -13 2 6 -8 11 -16 22 -17 24
-2 2 -3 0 -3 -6z"/>
<path d="M1507 1934 c6 -15 23 -19 23 -5 0 5 -7 11 -14 14 -10 4 -13 1 -9 -9z"/>
<path d="M1975 1940 c3 -5 8 -10 11 -10 2 0 4 5 4 10 0 6 -5 10 -11 10 -5 0
-7 -4 -4 -10z"/>
<path d="M1450 1921 c0 -6 4 -13 10 -16 6 -3 7 1 4 9 -7 18 -14 21 -14 7z"/>
<path d="M1882 1910 c-7 -11 -8 -20 -3 -20 5 0 12 7 15 16 5 14 9 14 24 3 15
-13 16 -12 3 4 -17 22 -23 22 -39 -3z"/>
<path d="M1394 1882 c4 -3 14 -7 22 -8 9 -1 13 0 10 4 -4 3 -14 7 -22 8 -9 1
-13 0 -10 -4z"/>
<path d="M1860 1840 c0 -5 7 -7 15 -4 8 4 15 8 15 10 0 2 -7 4 -15 4 -8 0 -15
-4 -15 -10z"/>
<path d="M1441 1804 c0 -11 3 -14 6 -6 3 7 2 16 -1 19 -3 4 -6 -2 -5 -13z"/>
<path d="M1816 1805 c4 -8 8 -15 10 -15 2 0 4 7 4 15 0 8 -4 15 -10 15 -5 0
-7 -7 -4 -15z"/>
<path d="M1375 1789 c-4 -6 -5 -12 -2 -15 2 -3 7 2 10 11 7 17 1 20 -8 4z"/>
<path d="M1400 1786 c0 -2 8 -10 18 -17 15 -13 16 -12 3 4 -13 16 -21 21 -21
13z"/>
<path d="M1841 1776 c-7 -9 -23 -13 -39 -10 -19 3 -23 2 -13 -5 7 -5 19 -8 25
-7 16 2 62 36 49 36 -6 0 -16 -6 -22 -14z"/>
<path d="M1390 1760 c0 -5 5 -10 11 -10 5 0 7 5 4 10 -3 6 -8 10 -11 10 -2 0
-4 -4 -4 -10z"/>
<path d="M1360 1735 c-7 -8 -16 -12 -21 -9 -5 3 -9 0 -9 -5 0 -14 17 -14 26 0
5 8 9 8 14 -1 5 -8 9 -7 13 4 8 21 -8 29 -23 11z"/>
<path d="M1775 1740 c3 -5 8 -10 11 -10 2 0 4 5 4 10 0 6 -5 10 -11 10 -5 0
-7 -4 -4 -10z"/>
<path d="M1756 1727 c3 -10 9 -15 12 -12 3 3 0 11 -7 18 -10 9 -11 8 -5 -6z"/>
<path d="M1726 1692 l-19 -27 24 22 c12 12 21 24 18 27 -2 2 -13 -8 -23 -22z"/>
<path d="M1755 1689 c-4 -6 -5 -12 -2 -15 2 -3 7 2 10 11 7 17 1 20 -8 4z"/>
<path d="M1336 1669 c2 -4 0 -10 -6 -14 -5 -3 -10 -1 -10 6 0 7 -3 10 -6 6
-10 -10 6 -26 21 -21 19 8 26 31 9 31 -7 0 -11 -4 -8 -8z"/>
<path d="M1775 1660 c3 -5 8 -10 11 -10 2 0 4 5 4 10 0 6 -5 10 -11 10 -5 0
-7 -4 -4 -10z"/>
<path d="M1710 1646 c0 -8 4 -17 9 -20 5 -4 7 3 4 14 -6 23 -13 26 -13 6z"/>
<path d="M1316 1621 c-3 -5 -16 -7 -29 -5 -12 2 -15 1 -7 -2 8 -4 17 -11 20
-15 3 -5 11 1 18 11 7 11 10 20 8 20 -3 0 -7 -4 -10 -9z"/>
<path d="M1694 1622 c3 -5 0 -13 -6 -15 -9 -4 -10 -6 -1 -6 17 -1 25 16 12 25
-7 4 -9 3 -5 -4z"/>
<path d="M1247 1599 c7 -7 15 -10 18 -7 3 3 -2 9 -12 12 -14 6 -15 5 -6 -5z"/>
<path d="M1656 1595 c-9 -26 -7 -32 5 -12 6 10 9 21 6 23 -2 3 -7 -2 -11 -11z"/>
<path d="M1267 1569 c7 -7 15 -10 18 -7 3 3 -2 9 -12 12 -14 6 -15 5 -6 -5z"/>
<path d="M1623 1543 c-20 -7 -15 -21 10 -33 21 -11 21 -10 3 4 -18 15 -15 21
7 17 5 -1 6 3 2 9 -3 5 -7 10 -8 9 -1 0 -8 -3 -14 -6z"/>
<path d="M1156 1513 c-6 -14 -5 -15 5 -6 7 7 10 15 7 18 -3 3 -9 -2 -12 -12z"/>
<path d="M1190 1525 c0 -5 5 -17 10 -25 5 -8 10 -10 10 -5 0 6 -5 17 -10 25
-5 8 -10 11 -10 5z"/>
<path d="M1620 1479 c0 -5 5 -7 10 -4 6 3 10 8 10 11 0 2 -4 4 -10 4 -5 0 -10
-5 -10 -11z"/>
<path d="M1158 1452 c-11 -15 -11 -15 4 -4 14 11 17 10 21 -5 4 -17 5 -17 6 0
1 12 6 16 14 11 6 -4 8 -3 4 1 -13 15 -36 14 -49 -3z"/>
<path d="M1595 1440 c3 -5 8 -10 11 -10 2 0 4 5 4 10 0 6 -5 10 -11 10 -5 0
-7 -4 -4 -10z"/>
<path d="M1535 1420 c-17 -18 -17 -20 -2 -14 9 3 17 11 17 16 0 6 9 8 20 5 11
-3 18 -1 14 4 -9 15 -30 10 -49 -11z"/>
<path d="M1140 1426 c0 -2 7 -6 15 -10 8 -3 15 -1 15 4 0 6 -7 10 -15 10 -8 0
-15 -2 -15 -4z"/>
<path d="M1142 1404 c4 -3 -3 -15 -15 -26 -12 -11 -16 -16 -8 -12 11 5 13 3 8
-10 -4 -11 -3 -15 4 -11 5 4 8 12 6 18 -2 7 5 17 16 23 18 10 19 11 1 18 -10
4 -15 4 -12 0z"/>
<path d="M1490 1358 c-11 -12 -17 -24 -15 -27 3 -2 12 5 21 17 8 12 20 19 26
16 7 -4 8 -2 4 4 -10 16 -12 15 -36 -10z"/>
<path d="M1060 1360 c-9 -6 -10 -10 -3 -10 6 0 15 5 18 10 8 12 4 12 -15 0z"/>
<path d="M1518 1343 c7 -3 16 -2 19 1 4 3 -2 6 -13 5 -11 0 -14 -3 -6 -6z"/>
<path d="M1076 1304 c3 -18 1 -23 -7 -18 -8 4 -9 3 -5 -4 4 -7 2 -12 -3 -12
-6 0 -11 -5 -11 -12 0 -6 8 -4 19 6 18 17 26 66 10 66 -4 0 -6 -12 -3 -26z"/>
<path d="M1035 1302 c3 -3 0 -11 -7 -19 -8 -11 -7 -12 5 -7 21 7 29 31 11 31
-8 0 -12 -3 -9 -5z"/>
<path d="M1476 1293 c-6 -14 -5 -15 5 -6 7 7 10 15 7 18 -3 3 -9 -2 -12 -12z"/>
<path d="M1019 1246 c8 -10 9 -16 1 -19 -6 -3 -5 -4 2 -3 19 4 20 23 2 30 -14
5 -15 4 -5 -8z"/>
<path d="M976 1233 c-6 -14 -5 -15 5 -6 7 7 10 15 7 18 -3 3 -9 -2 -12 -12z"/>
<path d="M1403 1235 c-7 -8 -9 -16 -4 -19 5 -3 12 1 15 10 5 12 10 14 19 5 10
-8 14 -7 14 2 0 17 -29 18 -44 2z"/>
<path d="M1428 1203 c7 -3 16 -2 19 1 4 3 -2 6 -13 5 -11 0 -14 -3 -6 -6z"/>
<path d="M980 1173 c21 -10 9 -23 -17 -18 -21 4 -23 3 -9 -3 14 -6 16 -11 8
-16 -7 -4 -18 -4 -24 0 -10 5 -10 4 -2 -5 9 -10 17 -9 38 4 27 18 30 37 8 41
-7 1 -8 0 -2 -3z"/>
<path d="M1345 1150 c-7 -22 -6 -30 2 -27 5 1 7 8 5 15 -3 11 10 16 31 13 4 0
7 3 7 8 0 16 -40 8 -45 -9z"/>
<path d="M1393 1125 c0 -8 4 -15 9 -15 4 0 8 4 8 9 0 6 -4 12 -8 15 -5 3 -9
-1 -9 -9z"/>
<path d="M913 1115 c0 -8 4 -15 9 -15 4 0 8 4 8 9 0 6 -4 12 -8 15 -5 3 -9 -1
-9 -9z"/>
<path d="M879 1088 c-5 -18 -6 -38 -1 -34 7 8 12 36 6 36 -2 0 -4 -1 -5 -2z"/>
<path d="M1315 1049 c-4 -6 -5 -12 -2 -15 2 -3 7 2 10 11 7 17 1 20 -8 4z"/>
<path d="M1266 1013 c-4 -10 -4 -14 0 -10 4 4 14 1 23 -6 14 -10 14 -10 3 5
-10 13 -10 17 0 21 9 4 8 6 -3 6 -9 1 -20 -7 -23 -16z"/>
<path d="M851 994 c0 -11 3 -14 6 -6 3 7 2 16 -1 19 -3 4 -6 -2 -5 -13z"/>
<path d="M1215 940 c3 -5 8 -10 11 -10 2 0 4 5 4 10 0 6 -5 10 -11 10 -5 0 -7
-4 -4 -10z"/>
<path d="M798 933 c7 -3 16 -2 19 1 4 3 -2 6 -13 5 -11 0 -14 -3 -6 -6z"/>
<path d="M1193 933 c4 -3 -1 -12 -11 -20 -15 -13 -15 -13 6 -3 19 9 23 30 5
30 -4 0 -3 -3 0 -7z"/>
<path d="M774 915 c1 -8 6 -18 11 -22 4 -4 5 -3 2 4 -4 6 -2 13 5 15 8 3 6 6
-4 10 -10 4 -15 2 -14 -7z"/>
<path d="M1196 895 c-11 -8 -15 -15 -9 -15 6 0 16 7 23 15 16 19 11 19 -14 0z"/>
<path d="M750 879 c0 -5 5 -7 10 -4 6 3 10 8 10 11 0 2 -4 4 -10 4 -5 0 -10
-5 -10 -11z"/>
<path d="M715 871 c-3 -5 -2 -12 3 -15 5 -3 9 1 9 9 0 17 -3 19 -12 6z"/>
<path d="M755 860 c-19 -8 -19 -9 3 -9 12 -1 22 4 22 9 0 6 -1 10 -2 9 -2 0
-12 -4 -23 -9z"/>
<path d="M1175 860 c3 -5 8 -10 11 -10 2 0 4 5 4 10 0 6 -5 10 -11 10 -5 0 -7
-4 -4 -10z"/>
<path d="M1142 827 c10 -8 14 -18 10 -23 -4 -4 1 -2 11 5 9 7 17 16 17 19 0 3
-3 2 -6 -1 -4 -3 -16 -2 -28 4 -19 9 -19 9 -4 -4z"/>
<path d="M696 822 c-3 -5 1 -9 9 -9 8 0 12 4 9 9 -3 4 -7 8 -9 8 -2 0 -6 -4
-9 -8z"/>
<path d="M1113 798 c0 -13 1 -17 4 -10 4 10 8 10 21 0 14 -12 14 -11 1 10 -8
12 -16 22 -19 22 -3 0 -6 -10 -7 -22z"/>
<path d="M654 772 c0 -19 19 -24 31 -9 3 4 2 5 -2 2 -3 -3 -11 2 -17 11 -10
13 -12 13 -12 -4z"/>
<path d="M1090 760 c0 -5 5 -10 10 -10 6 0 10 5 10 10 0 6 -4 10 -10 10 -5 0
-10 -4 -10 -10z"/>
<path d="M695 749 c-4 -6 -5 -12 -2 -15 2 -3 7 2 10 11 7 17 1 20 -8 4z"/>
<path d="M634 731 c13 -21 44 -32 52 -19 4 7 3 10 -1 5 -5 -4 -19 0 -33 9 -13
9 -21 11 -18 5z"/>
<path d="M2156 707 c3 -10 9 -15 12 -12 3 3 0 11 -7 18 -10 9 -11 8 -5 -6z"/>
<path d="M632 691 c7 -12 14 -17 16 -11 2 6 9 7 15 3 7 -3 8 -2 4 3 -5 5 -12
9 -15 9 -4 0 -13 4 -20 9 -11 7 -11 4 0 -13z"/>
<path d="M1963 678 c-11 -19 -12 -37 -3 -43 5 -3 7 3 5 12 -1 10 2 24 8 31 5
6 7 12 4 12 -3 0 -9 -6 -14 -12z"/>
<path d="M996 650 c-9 -17 -14 -34 -11 -40 7 -12 -8 -42 -21 -41 -5 1 -9 -4
-9 -10 0 -6 -11 -16 -24 -23 -23 -13 -23 -14 -5 -24 20 -11 59 2 49 18 -3 5 4
12 15 15 17 6 19 9 9 22 -10 12 -10 16 2 24 8 5 10 9 4 9 -5 0 -3 5 5 11 13 9
12 10 -2 5 -20 -6 -22 2 -8 24 6 10 10 11 10 3 0 -7 5 -13 11 -13 8 0 7 6 -2
16 -12 15 -11 16 11 9 14 -4 23 -6 20 -3 -34 27 -36 27 -54 -2z m-6 -91 c0 -4
-7 -10 -16 -13 -8 -3 -12 -11 -8 -17 4 -8 3 -9 -4 -5 -7 4 -12 2 -12 -4 0 -6
-5 -8 -11 -5 -6 5 -3 13 10 22 12 8 19 18 17 22 -3 4 1 8 9 8 8 0 15 -4 15 -8z"/>
<path d="M585 660 c-3 -6 1 -7 9 -4 18 7 21 14 7 14 -6 0 -13 -4 -16 -10z"/>
<path d="M1066 662 c-3 -5 1 -9 9 -9 8 0 15 4 15 9 0 4 -4 8 -9 8 -6 0 -12 -4
-15 -8z"/>
<path d="M2130 659 c0 -5 5 -7 10 -4 6 3 10 8 10 11 0 2 -4 4 -10 4 -5 0 -10
-5 -10 -11z"/>
<path d="M610 640 c14 -9 7 -14 -13 -11 -5 1 -6 -3 -2 -9 5 -8 11 -8 21 1 15
12 10 29 -9 29 -7 0 -6 -4 3 -10z"/>
<path d="M1935 630 c6 -10 4 -12 -8 -7 -9 3 -18 3 -21 -1 -3 -4 4 -8 14 -9 23
-2 35 13 19 23 -8 5 -9 3 -4 -6z"/>
<path d="M556 618 c3 -5 10 -6 15 -3 13 9 11 12 -6 12 -8 0 -12 -4 -9 -9z"/>
<path d="M1040 620 c-9 -6 -10 -10 -3 -10 6 0 15 5 18 10 8 12 4 12 -15 0z"/>
<path d="M955 600 c-3 -5 -1 -10 4 -10 6 0 11 5 11 10 0 6 -2 10 -4 10 -3 0
-8 -4 -11 -10z"/>
<path d="M1827 599 c7 -7 15 -10 18 -7 3 3 -2 9 -12 12 -14 6 -15 5 -6 -5z"/>
<path d="M560 596 c0 -2 8 -10 18 -17 15 -13 16 -12 3 4 -13 16 -21 21 -21 13z"/>
<path d="M1024 585 c-18 -15 -18 -15 0 -8 15 5 17 3 11 -8 -5 -8 -4 -11 0 -6
8 7 17 37 11 37 -1 0 -11 -7 -22 -15z"/>
<path d="M1874 582 c3 -5 -1 -12 -9 -16 -17 -6 -20 -26 -4 -26 5 0 8 4 5 9 -3
5 1 12 10 15 22 9 26 8 18 -6 -4 -7 -3 -8 4 -4 16 10 15 14 -9 27 -12 6 -19 7
-15 1z"/>
<path d="M552 575 c4 -4 0 -13 -9 -20 -13 -9 -13 -14 -3 -20 9 -5 11 -4 6 3
-4 7 -1 12 8 12 19 0 21 16 4 26 -7 4 -10 4 -6 -1z"/>
<path d="M2093 558 c-1 -11 1 -16 5 -12 4 5 11 12 15 15 5 3 2 9 -5 12 -9 3
-14 -3 -15 -15z"/>
<path d="M1013 533 c-3 -7 -10 -10 -16 -6 -6 3 -7 1 -3 -5 10 -17 26 -15 26 4
0 8 4 13 9 9 5 -3 12 -2 15 3 3 5 -2 9 -10 9 -9 0 -18 -6 -21 -14z"/>
<path d="M1057 535 c-4 -8 -3 -16 1 -19 4 -3 9 4 9 15 2 23 -3 25 -10 4z"/>
<path d="M1793 531 c10 -12 9 -14 -6 -8 -10 4 -16 3 -12 -2 6 -12 45 -10 45 1
0 4 -5 8 -11 8 -5 0 -8 4 -5 8 3 5 -1 9 -9 9 -12 0 -12 -3 -2 -16z"/>
<path d="M2130 541 c0 -6 4 -13 10 -16 6 -3 7 1 4 9 -7 18 -14 21 -14 7z"/>
<path d="M1133 527 c0 -8 6 -14 14 -14 9 0 10 4 2 14 -6 7 -12 13 -14 13 -1 0
-2 -6 -2 -13z"/>
<path d="M1719 538 c-7 -24 -4 -40 9 -50 15 -11 15 -11 4 4 -10 13 -10 17 0
21 11 4 10 6 0 6 -7 1 -10 6 -7 11 3 6 4 10 1 10 -3 0 -6 -1 -7 -2z"/>
<path d="M505 519 c-11 -16 -1 -19 13 -3 7 8 8 14 3 14 -5 0 -13 -5 -16 -11z"/>
<path d="M1081 514 c0 -11 3 -14 6 -6 3 7 2 16 -1 19 -3 4 -6 -2 -5 -13z"/>
<path d="M1175 520 c3 -5 8 -10 11 -10 2 0 4 5 4 10 0 6 -5 10 -11 10 -5 0 -7
-4 -4 -10z"/>
<path d="M1600 526 c0 -2 8 -10 18 -17 15 -13 16 -12 3 4 -13 16 -21 21 -21
13z"/>
<path d="M1680 510 c-6 -11 -8 -20 -6 -20 3 0 10 9 16 20 6 11 8 20 6 20 -3 0
-10 -9 -16 -20z"/>
<path d="M2091 513 c7 -12 15 -20 18 -17 3 2 -3 12 -13 22 -17 16 -18 16 -5
-5z"/>
<path d="M1036 507 c3 -10 9 -15 12 -12 3 3 0 11 -7 18 -10 9 -11 8 -5 -6z"/>
<path d="M1211 507 c2 -1 13 -9 24 -17 19 -14 19 -14 6 3 -7 9 -18 17 -24 17
-6 0 -8 -1 -6 -3z"/>
<path d="M1750 500 c0 -5 5 -10 10 -10 6 0 10 5 10 10 0 6 -4 10 -10 10 -5 0
-10 -4 -10 -10z"/>
<path d="M1015 490 c3 -5 8 -10 11 -10 2 0 4 5 4 10 0 6 -5 10 -11 10 -5 0 -7
-4 -4 -10z"/>
<path d="M1140 496 c0 -2 7 -7 16 -10 8 -3 12 -2 9 4 -6 10 -25 14 -25 6z"/>
<path d="M2066 443 c-6 -14 -5 -15 5 -6 7 7 10 15 7 18 -3 3 -9 -2 -12 -12z"/>
<path d="M663 325 c0 -8 4 -12 9 -9 5 3 6 10 3 15 -9 13 -12 11 -12 -6z"/>
<path d="M820 330 c-9 -6 -10 -10 -3 -10 6 0 15 5 18 10 8 12 4 12 -15 0z"/>
<path d="M910 330 c-8 -5 -10 -10 -5 -10 6 0 17 5 25 10 8 5 11 10 5 10 -5 0
-17 -5 -25 -10z"/>
<path d="M1033 325 c0 -8 4 -12 9 -9 4 3 8 9 8 15 0 5 -4 9 -8 9 -5 0 -9 -7
-9 -15z"/>
<path d="M1181 318 c-13 -20 -12 -22 1 -11 8 7 17 11 20 8 2 -3 5 2 5 10 0 21
-10 19 -26 -7z"/>
<path d="M1315 329 c-4 -6 -5 -12 -2 -15 2 -3 7 2 10 11 7 17 1 20 -8 4z"/>
<path d="M1434 328 c10 -6 22 -6 26 -2 5 5 -3 10 -18 11 -22 1 -24 0 -8 -9z"/>
<path d="M1555 329 c-4 -6 -5 -12 -2 -15 2 -3 7 2 10 11 7 17 1 20 -8 4z"/>
<path d="M1613 324 c1 -21 2 -21 23 -5 12 9 20 18 18 20 -2 2 -10 -1 -18 -8
-11 -9 -15 -9 -19 1 -3 7 -4 3 -4 -8z"/>
<path d="M1750 330 c-8 -5 -10 -10 -5 -10 6 0 17 5 25 10 8 5 11 10 5 10 -5 0
-17 -5 -25 -10z"/>
<path d="M1820 331 c0 -6 4 -13 10 -16 6 -3 7 1 4 9 -7 18 -14 21 -14 7z"/>
<path d="M1851 324 c0 -11 3 -14 6 -6 3 7 2 16 -1 19 -3 4 -6 -2 -5 -13z"/>
<path d="M1921 333 c-1 -7 -8 -10 -16 -7 -8 4 -15 2 -15 -3 0 -12 46 -11 57 1
4 5 3 6 -4 3 -6 -4 -14 -1 -16 5 -4 10 -6 10 -6 1z"/>
<path d="M625 320 c-3 -6 1 -7 9 -4 18 7 21 14 7 14 -6 0 -13 -4 -16 -10z"/>
<path d="M747 311 c-4 -17 -3 -21 5 -13 5 5 8 16 6 23 -3 8 -7 3 -11 -10z"/>
<path d="M1357 315 c-4 -8 -3 -16 1 -19 4 -3 9 4 9 15 2 23 -3 25 -10 4z"/>
<path d="M1494 319 c-4 -7 -3 -9 4 -5 5 3 13 0 15 -6 4 -9 6 -10 6 -1 1 17
-16 25 -25 12z"/>
<path d="M715 310 c3 -5 8 -10 11 -10 2 0 4 5 4 10 0 6 -5 10 -11 10 -5 0 -7
-4 -4 -10z"/>
<path d="M793 305 c0 -7 6 -11 14 -8 7 3 13 6 13 8 0 2 -6 5 -13 8 -8 3 -14
-1 -14 -8z"/>
<path d="M836 312 c-2 -4 4 -8 14 -8 10 0 16 4 14 8 -3 4 -9 8 -14 8 -5 0 -11
-4 -14 -8z"/>
<path d="M1010 311 c0 -6 4 -13 10 -16 6 -3 7 1 4 9 -7 18 -14 21 -14 7z"/>
<path d="M906 298 c3 -4 11 -5 19 -1 21 7 19 12 -4 10 -11 0 -18 -5 -15 -9z"/>
<path d="M955 300 c3 -5 8 -10 11 -10 2 0 4 5 4 10 0 6 -5 10 -11 10 -5 0 -7
-4 -4 -10z"/>
<path d="M1426 298 c3 -5 10 -6 15 -3 13 9 11 12 -6 12 -8 0 -12 -4 -9 -9z"/>
<path d="M1745 300 c-3 -6 1 -7 9 -4 18 7 21 14 7 14 -6 0 -13 -4 -16 -10z"/>
<path d="M1790 296 c7 -7 13 -7 20 0 6 6 3 10 -10 10 -13 0 -16 -4 -10 -10z"/>
<path d="M1860 300 c-9 -6 -10 -10 -3 -10 6 0 15 5 18 10 8 12 4 12 -15 0z"/>
<path d="M555 289 c-4 -6 -5 -12 -2 -15 2 -3 7 2 10 11 7 17 1 20 -8 4z"/>
<path d="M1893 285 c0 -8 4 -12 9 -9 5 3 6 10 3 15 -9 13 -12 11 -12 -6z"/>
<path d="M1300 280 c8 -5 20 -10 25 -10 6 0 3 5 -5 10 -8 5 -19 10 -25 10 -5
0 -3 -5 5 -10z"/>
<path d="M1530 286 c0 -2 7 -7 16 -10 8 -3 12 -2 9 4 -6 10 -25 14 -25 6z"/>
<path d="M1650 279 c0 -5 5 -7 10 -4 6 3 10 8 10 11 0 2 -4 4 -10 4 -5 0 -10
-5 -10 -11z"/>
<path d="M1393 245 c0 -8 4 -12 9 -9 5 3 6 10 3 15 -9 13 -12 11 -12 -6z"/>
</g>
</svg>
